<svg width="927" height="262" viewBox="0 0 927 262" fill="none" xmlns="http://www.w3.org/2000/svg">
<rect width="927" height="262" rx="30" fill="#9CBFA7"/>
<path d="M375.418 130.164V131.406H390.16V130.164H375.418ZM382.006 126.672V130.686H383.5V126.672H382.006ZM377.2 118.338V119.544H386.866V122.064H377.254V126.528H378.73V123.27H388.342V118.338H377.2ZM377.254 125.898V127.122H388.72V125.898H377.254ZM392.481 118.86V120.066H402.957V118.86H392.481ZM390.897 129.786V131.028H405.603V129.786H390.897ZM402.165 118.86V120.48C402.165 122.496 402.165 124.926 401.517 128.256L403.011 128.4C403.623 124.89 403.623 122.568 403.623 120.48V118.86H402.165ZM418.201 117.15V129.03H419.713V117.15H418.201ZM409.255 131.82V133.044H420.199V131.82H409.255ZM409.255 127.806V132.234H410.731V127.806H409.255ZM410.983 118.266C408.553 118.266 406.735 119.922 406.735 122.28C406.735 124.62 408.553 126.294 410.983 126.294C413.413 126.294 415.213 124.62 415.213 122.28C415.213 119.922 413.413 118.266 410.983 118.266ZM410.983 119.562C412.567 119.562 413.773 120.678 413.773 122.28C413.773 123.864 412.567 124.98 410.983 124.98C409.399 124.98 408.193 123.864 408.193 122.28C408.193 120.678 409.399 119.562 410.983 119.562ZM437.521 117.132V129.084H439.015V117.132H437.521ZM426.307 118.572V119.688H435.829V118.572H426.307ZM431.077 120.372C428.755 120.372 427.225 121.254 427.225 122.73C427.225 124.188 428.755 125.088 431.077 125.088C433.417 125.088 434.947 124.188 434.947 122.73C434.947 121.254 433.417 120.372 431.077 120.372ZM431.077 121.398C432.571 121.398 433.525 121.902 433.525 122.73C433.525 123.54 432.571 124.044 431.077 124.044C429.601 124.044 428.629 123.54 428.629 122.73C428.629 121.902 429.601 121.398 431.077 121.398ZM430.321 117.024V119.094H431.833V117.024H430.321ZM430.321 124.602V126.726H431.833V124.602H430.321ZM425.983 127.572C428.917 127.572 432.787 127.518 436.333 126.924L436.225 125.88C432.805 126.348 428.773 126.384 425.785 126.384L425.983 127.572ZM432.859 128.31V128.49C432.859 130.416 430.393 131.838 427.441 132.216L427.963 133.35C431.311 132.9 434.137 131.19 434.137 128.49V128.31H432.859ZM433.075 128.31V128.49C433.075 131.19 435.901 132.9 439.249 133.35L439.771 132.216C436.819 131.838 434.371 130.416 434.371 128.49V128.31H433.075ZM447.762 117.708V118.608C447.762 120.93 444.9 122.874 441.93 123.324L442.524 124.53C445.908 123.954 449.076 121.722 449.076 118.608V117.708H447.762ZM448.032 117.708V118.608C448.032 121.686 451.218 123.954 454.566 124.53L455.16 123.324C452.226 122.874 449.328 120.876 449.328 118.608V117.708H448.032ZM447.762 127.212V133.404H449.238V127.212H447.762ZM441.192 126.294V127.536H455.898V126.294H441.192ZM461.286 132.09C461.022 132.09 460.8 132 460.62 131.82C460.452 131.64 460.368 131.418 460.368 131.154C460.368 130.89 460.452 130.674 460.62 130.506C460.8 130.326 461.022 130.236 461.286 130.236C461.538 130.236 461.748 130.326 461.916 130.506C462.096 130.674 462.186 130.89 462.186 131.154C462.186 131.418 462.096 131.64 461.916 131.82C461.748 132 461.538 132.09 461.286 132.09ZM461.286 124.26C461.022 124.26 460.8 124.17 460.62 123.99C460.452 123.81 460.368 123.588 460.368 123.324C460.368 123.06 460.452 122.844 460.62 122.676C460.8 122.496 461.022 122.406 461.286 122.406C461.538 122.406 461.748 122.496 461.916 122.676C462.096 122.844 462.186 123.06 462.186 123.324C462.186 123.588 462.096 123.81 461.916 123.99C461.748 124.17 461.538 124.26 461.286 124.26ZM466.65 131.01C468.858 129.354 470.562 127.872 471.762 126.564C472.974 125.244 473.58 123.954 473.58 122.694C473.58 121.866 473.37 121.206 472.95 120.714C472.542 120.21 471.87 119.958 470.934 119.958C470.022 119.958 469.314 120.246 468.81 120.822C468.318 121.386 468.042 122.142 467.982 123.09H466.758C466.83 121.758 467.238 120.726 467.982 119.994C468.738 119.25 469.722 118.878 470.934 118.878C472.098 118.878 473.04 119.208 473.76 119.868C474.48 120.516 474.84 121.44 474.84 122.64C474.84 124.092 474.234 125.502 473.022 126.87C471.822 128.226 470.34 129.552 468.576 130.848H475.236V131.91H466.65V131.01ZM476.069 122.388C476.153 121.296 476.573 120.438 477.329 119.814C478.097 119.178 479.087 118.86 480.299 118.86C481.103 118.86 481.793 119.004 482.369 119.292C482.945 119.58 483.377 119.976 483.665 120.48C483.965 120.972 484.115 121.53 484.115 122.154C484.115 122.91 483.893 123.564 483.449 124.116C483.005 124.668 482.375 125.01 481.559 125.142V125.232C482.411 125.4 483.089 125.772 483.593 126.348C484.097 126.912 484.349 127.656 484.349 128.58C484.349 129.612 484.001 130.458 483.305 131.118C482.621 131.766 481.625 132.09 480.317 132.09C479.069 132.09 478.043 131.766 477.239 131.118C476.435 130.458 475.973 129.528 475.853 128.328H477.077C477.185 129.132 477.521 129.786 478.085 130.29C478.649 130.782 479.393 131.028 480.317 131.028C481.229 131.028 481.925 130.788 482.405 130.308C482.897 129.828 483.143 129.216 483.143 128.472C483.143 126.648 481.829 125.736 479.201 125.736H478.805V124.674H479.219C481.667 124.674 482.891 123.876 482.891 122.28C482.891 121.584 482.663 121.026 482.207 120.606C481.751 120.174 481.103 119.958 480.263 119.958C479.447 119.958 478.769 120.174 478.229 120.606C477.701 121.026 477.389 121.62 477.293 122.388H476.069Z" fill="#00462A"/>
<path d="M378.584 75.796V76.498C378.584 78.64 376.946 80.53 374.534 81.268L375.254 82.438C377.972 81.556 379.808 79.288 379.808 76.498V75.796H378.584ZM378.854 75.796V76.498C378.854 79.108 380.636 81.304 383.354 82.15L384.056 80.962C381.662 80.26 380.078 78.478 380.078 76.498V75.796H378.854ZM374.984 75.04V76.246H383.66V75.04H374.984ZM378.584 73.06V75.526H380.078V73.06H378.584ZM385.658 73.132V82.762H387.152V73.132H385.658ZM386.738 77.236V78.496H389.564V77.236H386.738ZM376.928 83.518V89.188H387.152V83.518H376.928ZM385.694 84.706V87.982H378.386V84.706H385.694ZM397.339 76.75V77.992H402.253V76.75H397.339ZM397.339 81.898V83.14H402.253V81.898H397.339ZM394.351 74.374C391.975 74.374 390.301 76.588 390.301 80.044C390.301 83.518 391.975 85.732 394.351 85.732C396.709 85.732 398.401 83.518 398.401 80.044C398.401 76.588 396.709 74.374 394.351 74.374ZM394.351 75.724C395.917 75.724 396.997 77.416 396.997 80.044C396.997 82.69 395.917 84.418 394.351 84.418C392.785 84.418 391.705 82.69 391.705 80.044C391.705 77.416 392.785 75.724 394.351 75.724ZM401.929 73.114V89.422H403.405V73.114H401.929ZM416.616 73.15V85.354H418.11V73.15H416.616ZM417.642 78.478V79.738H420.522V78.478H417.642ZM405.528 75.112V76.318H415.14V75.112H405.528ZM410.334 77.218C408.012 77.218 406.428 78.424 406.428 80.26C406.428 82.078 408.012 83.284 410.334 83.284C412.638 83.284 414.222 82.078 414.222 80.26C414.222 78.424 412.638 77.218 410.334 77.218ZM410.334 78.388C411.792 78.388 412.8 79.126 412.8 80.26C412.8 81.376 411.792 82.114 410.334 82.114C408.858 82.114 407.85 81.376 407.85 80.26C407.85 79.126 408.858 78.388 410.334 78.388ZM409.578 73.132V75.742H411.072V73.132H409.578ZM407.976 87.82V89.044H418.848V87.82H407.976ZM407.976 84.382V88.342H409.47V84.382H407.976ZM428.214 75.796V76.264C428.214 77.974 426.918 79.756 424.902 80.548L425.586 81.682C427.944 80.764 429.348 78.514 429.348 76.264V75.796H428.214ZM428.502 75.796V76.264C428.502 78.442 429.924 80.53 432.282 81.376L432.948 80.242C430.95 79.558 429.618 77.884 429.618 76.264V75.796H428.502ZM425.262 74.968V76.156H432.516V74.968H425.262ZM428.214 73.222V75.67H429.618V73.222H428.214ZM437.106 73.15V81.844H438.528V73.15H437.106ZM434.514 76.84V78.046H437.592V76.84H434.514ZM433.65 73.456V81.682H435.054V73.456H433.65ZM427.8 82.546V83.698H437.088V85.228H427.836V88.792H429.312V86.326H438.528V82.546H427.8ZM427.836 88.036V89.206H439.158V88.036H427.836ZM452.134 73.15V85.138H453.628V73.15H452.134ZM443.026 87.82V89.044H454.078V87.82H443.026ZM443.026 84.184V88.432H444.52V84.184H443.026ZM441.136 81.592V82.816H442.45C445.6 82.816 447.76 82.726 450.352 82.276L450.19 81.052C447.67 81.484 445.528 81.592 442.45 81.592H441.136ZM441.1 74.284V75.508H447.022V77.848H441.136V81.97H442.594V79H448.48V74.284H441.1ZM460.089 75.454V78.1C460.089 80.908 458.127 83.968 455.769 85.084L456.633 86.272C459.225 84.994 461.295 81.538 461.295 78.1V75.454H460.089ZM460.377 75.454V78.1C460.377 81.484 462.465 84.652 465.093 85.876L465.939 84.688C463.545 83.662 461.583 80.854 461.583 78.1V75.454H460.377ZM456.309 74.788V76.048H465.399V74.788H456.309ZM467.595 73.132V89.404H469.089V73.132H467.595ZM475.881 88.09C475.617 88.09 475.395 88 475.215 87.82C475.047 87.64 474.963 87.418 474.963 87.154C474.963 86.89 475.047 86.674 475.215 86.506C475.395 86.326 475.617 86.236 475.881 86.236C476.133 86.236 476.343 86.326 476.511 86.506C476.691 86.674 476.781 86.89 476.781 87.154C476.781 87.418 476.691 87.64 476.511 87.82C476.343 88 476.133 88.09 475.881 88.09ZM475.881 80.26C475.617 80.26 475.395 80.17 475.215 79.99C475.047 79.81 474.963 79.588 474.963 79.324C474.963 79.06 475.047 78.844 475.215 78.676C475.395 78.496 475.617 78.406 475.881 78.406C476.133 78.406 476.343 78.496 476.511 78.676C476.691 78.844 476.781 79.06 476.781 79.324C476.781 79.588 476.691 79.81 476.511 79.99C476.343 80.17 476.133 80.26 475.881 80.26ZM480.939 84.94V83.986L487.491 75.166H488.985V83.842H490.911V84.94H488.985V88H487.743V84.94H480.939ZM487.797 76.552L482.397 83.842H487.797V76.552Z" fill="#00462A"/>
<path d="M343.5 163V169M343.5 173H343.509M353 168C353 172.971 348.747 177 343.5 177C338.253 177 334 172.971 334 168C334 163.029 338.253 159 343.5 159C348.747 159 353 163.029 353 168Z" stroke="#00462A" stroke-linecap="round" stroke-linejoin="round"/>
<path d="M381.461 170.502V171.708H382.703C386.033 171.708 387.905 171.636 390.119 171.24L389.957 170.034C387.797 170.43 385.979 170.502 382.703 170.502H381.461ZM381.461 163.428V170.898H382.937V164.652H388.895V163.428H381.461ZM382.469 166.902V168.09H388.589V166.902H382.469ZM391.847 162.114V174.192H393.341V162.114H391.847ZM392.873 167.19V168.432H395.753V167.19H392.873ZM383.207 176.82V178.044H394.079V176.82H383.207ZM383.207 173.112V177.486H384.701V173.112H383.207ZM396.202 175.056V176.298H410.944V175.056H396.202ZM402.754 171.114V175.47H404.23V171.114H402.754ZM402.718 163.212V164.472C402.718 167.154 399.64 169.548 396.778 170.07L397.408 171.312C400.684 170.628 404.014 167.946 404.014 164.472V163.212H402.718ZM402.988 163.212V164.472C402.988 167.946 406.318 170.628 409.594 171.312L410.242 170.07C407.38 169.548 404.284 167.172 404.284 164.472V163.212H402.988ZM427.438 162.114V178.422H428.914V162.114H427.438ZM423.928 168.054V169.278H427.87V168.054H423.928ZM419.662 164.454V166.884C419.662 169.782 417.736 172.86 415.396 174.012L416.278 175.2C418.852 173.868 420.868 170.394 420.868 166.884V164.454H419.662ZM419.968 164.454V166.884C419.968 170.232 421.948 173.58 424.522 174.858L425.404 173.688C423.046 172.572 421.156 169.602 421.156 166.884V164.454H419.968ZM415.99 163.788V165.03H424.846V163.788H415.99ZM442.142 162.132V171.348H443.636V162.132H442.142ZM443.222 166.092V167.334H446.048V166.092H443.222ZM437.642 163.176V163.842C437.642 166.83 435.212 169.188 431 170.34L431.576 171.528C436.364 170.232 439.226 167.28 439.226 163.176H437.642ZM431.702 163.176V164.382H438.47V163.176H431.702ZM433.394 172.122V178.188H443.636V172.122H433.394ZM442.16 173.328V176.964H434.87V173.328H442.16ZM458.665 164.67V165.912H461.527V164.67H458.665ZM458.665 168.09V169.332H461.527V168.09H458.665ZM457.621 162.132V171.978H459.115V162.132H457.621ZM447.199 169.8V171.042H448.477C451.483 171.042 453.625 170.934 456.199 170.502L456.073 169.26C453.535 169.71 451.429 169.8 448.477 169.8H447.199ZM447.163 163.14V164.364H453.013V166.398H447.199V170.592H448.657V167.568H454.489V163.14H447.163ZM453.913 172.464C450.601 172.464 448.567 173.544 448.567 175.416C448.567 177.306 450.601 178.386 453.913 178.386C457.243 178.386 459.259 177.306 459.259 175.416C459.259 173.544 457.243 172.464 453.913 172.464ZM453.913 173.634C456.343 173.634 457.819 174.282 457.819 175.416C457.819 176.568 456.343 177.216 453.913 177.216C451.483 177.216 450.025 176.568 450.025 175.416C450.025 174.282 451.483 173.634 453.913 173.634ZM466.591 177.09C466.327 177.09 466.105 177 465.925 176.82C465.757 176.64 465.673 176.418 465.673 176.154C465.673 175.89 465.757 175.674 465.925 175.506C466.105 175.326 466.327 175.236 466.591 175.236C466.843 175.236 467.053 175.326 467.221 175.506C467.401 175.674 467.491 175.89 467.491 176.154C467.491 176.418 467.401 176.64 467.221 176.82C467.053 177 466.843 177.09 466.591 177.09ZM466.591 169.26C466.327 169.26 466.105 169.17 465.925 168.99C465.757 168.81 465.673 168.588 465.673 168.324C465.673 168.06 465.757 167.844 465.925 167.676C466.105 167.496 466.327 167.406 466.591 167.406C466.843 167.406 467.053 167.496 467.221 167.676C467.401 167.844 467.491 168.06 467.491 168.324C467.491 168.588 467.401 168.81 467.221 168.99C467.053 169.17 466.843 169.26 466.591 169.26Z" fill="#00462A"/>
<path d="M343.5 74L346.436 79.5961L353 80.4934L348.25 84.8493L349.371 91L343.5 88.0961L337.629 91L338.75 84.8493L334 80.4934L340.564 79.5961L343.5 74Z" stroke="#00462A" stroke-linecap="round" stroke-linejoin="round"/>
<path d="M352.9 126C352.9 121.029 348.669 117 343.45 117C338.231 117 334 121.029 334 126C334 130.971 338.231 135 343.45 135C347.65 135 350.275 133 351.85 130M352.9 126L349.75 124M352.9 126L355 123M345.55 128L343.45 126V121" stroke="#00462A" stroke-linecap="round" stroke-linejoin="round"/>
<path d="M111.435 114.76V128.936C111.435 130.621 111.873 131.891 112.747 132.744C113.643 133.597 114.881 134.024 116.459 134.024C118.059 134.024 119.297 133.597 120.171 132.744C121.067 131.891 121.515 130.621 121.515 128.936V114.76H125.163V128.872C125.163 130.685 124.769 132.221 123.979 133.48C123.19 134.739 122.134 135.677 120.811 136.296C119.489 136.915 118.027 137.224 116.427 137.224C114.827 137.224 113.366 136.915 112.043 136.296C110.742 135.677 109.707 134.739 108.939 133.48C108.171 132.221 107.787 130.685 107.787 128.872V114.76H111.435ZM134.393 137.288C133.006 137.288 131.758 137.043 130.649 136.552C129.561 136.04 128.697 135.357 128.057 134.504C127.417 133.629 127.076 132.659 127.033 131.592H130.809C130.873 132.339 131.225 132.968 131.865 133.48C132.526 133.971 133.348 134.216 134.329 134.216C135.353 134.216 136.142 134.024 136.697 133.64C137.273 133.235 137.561 132.723 137.561 132.104C137.561 131.443 137.241 130.952 136.601 130.632C135.982 130.312 134.99 129.96 133.625 129.576C132.302 129.213 131.225 128.861 130.393 128.52C129.561 128.179 128.836 127.656 128.217 126.952C127.62 126.248 127.321 125.32 127.321 124.168C127.321 123.229 127.598 122.376 128.153 121.608C128.708 120.819 129.497 120.2 130.521 119.752C131.566 119.304 132.761 119.08 134.105 119.08C136.11 119.08 137.721 119.592 138.937 120.616C140.174 121.619 140.836 122.995 140.921 124.744H137.273C137.209 123.955 136.889 123.325 136.313 122.856C135.737 122.387 134.958 122.152 133.977 122.152C133.017 122.152 132.281 122.333 131.769 122.696C131.257 123.059 131.001 123.539 131.001 124.136C131.001 124.605 131.172 125 131.513 125.32C131.854 125.64 132.27 125.896 132.761 126.088C133.252 126.259 133.977 126.483 134.937 126.76C136.217 127.101 137.262 127.453 138.073 127.816C138.905 128.157 139.62 128.669 140.217 129.352C140.814 130.035 141.124 130.941 141.145 132.072C141.145 133.075 140.868 133.971 140.313 134.76C139.758 135.549 138.969 136.168 137.945 136.616C136.942 137.064 135.758 137.288 134.393 137.288ZM159.327 127.752C159.327 128.413 159.284 129.011 159.199 129.544H145.727C145.834 130.952 146.356 132.083 147.295 132.936C148.234 133.789 149.386 134.216 150.751 134.216C152.714 134.216 154.1 133.395 154.911 131.752H158.847C158.314 133.373 157.343 134.707 155.935 135.752C154.548 136.776 152.82 137.288 150.751 137.288C149.066 137.288 147.551 136.915 146.207 136.168C144.884 135.4 143.839 134.333 143.071 132.968C142.324 131.581 141.951 129.981 141.951 128.168C141.951 126.355 142.314 124.765 143.039 123.4C143.786 122.013 144.82 120.947 146.143 120.2C147.487 119.453 149.023 119.08 150.751 119.08C152.415 119.08 153.898 119.443 155.199 120.168C156.5 120.893 157.514 121.917 158.239 123.24C158.964 124.541 159.327 126.045 159.327 127.752ZM155.519 126.6C155.498 125.256 155.018 124.179 154.079 123.368C153.14 122.557 151.978 122.152 150.591 122.152C149.332 122.152 148.255 122.557 147.359 123.368C146.463 124.157 145.93 125.235 145.759 126.6H155.519ZM164.645 121.928C165.178 121.032 165.882 120.339 166.757 119.848C167.653 119.336 168.709 119.08 169.925 119.08V122.856H168.997C167.568 122.856 166.48 123.219 165.733 123.944C165.008 124.669 164.645 125.928 164.645 127.72V137H160.997V119.368H164.645V121.928ZM171.934 114.76H175.902L172.542 122.376H169.982L171.934 114.76ZM183.588 137.288C182.201 137.288 180.953 137.043 179.844 136.552C178.756 136.04 177.892 135.357 177.252 134.504C176.612 133.629 176.271 132.659 176.228 131.592H180.004C180.068 132.339 180.42 132.968 181.06 133.48C181.721 133.971 182.543 134.216 183.524 134.216C184.548 134.216 185.337 134.024 185.892 133.64C186.468 133.235 186.756 132.723 186.756 132.104C186.756 131.443 186.436 130.952 185.796 130.632C185.177 130.312 184.185 129.96 182.82 129.576C181.497 129.213 180.42 128.861 179.588 128.52C178.756 128.179 178.031 127.656 177.412 126.952C176.815 126.248 176.516 125.32 176.516 124.168C176.516 123.229 176.793 122.376 177.348 121.608C177.903 120.819 178.692 120.2 179.716 119.752C180.761 119.304 181.956 119.08 183.3 119.08C185.305 119.08 186.916 119.592 188.132 120.616C189.369 121.619 190.031 122.995 190.116 124.744H186.468C186.404 123.955 186.084 123.325 185.508 122.856C184.932 122.387 184.153 122.152 183.172 122.152C182.212 122.152 181.476 122.333 180.964 122.696C180.452 123.059 180.196 123.539 180.196 124.136C180.196 124.605 180.367 125 180.708 125.32C181.049 125.64 181.465 125.896 181.956 126.088C182.447 126.259 183.172 126.483 184.132 126.76C185.412 127.101 186.457 127.453 187.268 127.816C188.1 128.157 188.815 128.669 189.412 129.352C190.009 130.035 190.319 130.941 190.34 132.072C190.34 133.075 190.063 133.971 189.508 134.76C188.953 135.549 188.164 136.168 187.14 136.616C186.137 137.064 184.953 137.288 183.588 137.288ZM206.082 137.224C204.589 137.224 203.245 136.968 202.05 136.456C200.856 135.923 199.917 135.176 199.234 134.216C198.552 133.256 198.21 132.136 198.21 130.856H202.114C202.2 131.816 202.573 132.605 203.234 133.224C203.917 133.843 204.866 134.152 206.082 134.152C207.341 134.152 208.322 133.853 209.026 133.256C209.73 132.637 210.082 131.848 210.082 130.888C210.082 130.141 209.858 129.533 209.41 129.064C208.984 128.595 208.44 128.232 207.778 127.976C207.138 127.72 206.242 127.443 205.09 127.144C203.64 126.76 202.456 126.376 201.538 125.992C200.642 125.587 199.874 124.968 199.234 124.136C198.594 123.304 198.274 122.195 198.274 120.808C198.274 119.528 198.594 118.408 199.234 117.448C199.874 116.488 200.77 115.752 201.922 115.24C203.074 114.728 204.408 114.472 205.922 114.472C208.077 114.472 209.837 115.016 211.202 116.104C212.589 117.171 213.357 118.643 213.506 120.52H209.474C209.41 119.709 209.026 119.016 208.322 118.44C207.618 117.864 206.69 117.576 205.538 117.576C204.493 117.576 203.64 117.843 202.978 118.376C202.317 118.909 201.986 119.677 201.986 120.68C201.986 121.363 202.189 121.928 202.594 122.376C203.021 122.803 203.554 123.144 204.194 123.4C204.834 123.656 205.709 123.933 206.818 124.232C208.29 124.637 209.485 125.043 210.402 125.448C211.341 125.853 212.13 126.483 212.77 127.336C213.432 128.168 213.762 129.288 213.762 130.696C213.762 131.827 213.453 132.893 212.834 133.896C212.237 134.899 211.352 135.709 210.178 136.328C209.026 136.925 207.661 137.224 206.082 137.224ZM220.403 122.344V132.104C220.403 132.765 220.552 133.245 220.851 133.544C221.171 133.821 221.704 133.96 222.451 133.96H224.691V137H221.811C220.168 137 218.91 136.616 218.035 135.848C217.16 135.08 216.723 133.832 216.723 132.104V122.344H214.643V119.368H216.723V114.984H220.403V119.368H224.691V122.344H220.403ZM224.917 128.104C224.917 126.333 225.28 124.765 226.005 123.4C226.752 122.035 227.754 120.979 229.013 120.232C230.293 119.464 231.701 119.08 233.237 119.08C234.624 119.08 235.829 119.357 236.853 119.912C237.898 120.445 238.73 121.117 239.349 121.928V119.368H243.029V137H239.349V134.376C238.73 135.208 237.888 135.901 236.821 136.456C235.754 137.011 234.538 137.288 233.173 137.288C231.658 137.288 230.272 136.904 229.013 136.136C227.754 135.347 226.752 134.259 226.005 132.872C225.28 131.464 224.917 129.875 224.917 128.104ZM239.349 128.168C239.349 126.952 239.093 125.896 238.581 125C238.09 124.104 237.44 123.421 236.629 122.952C235.818 122.483 234.944 122.248 234.005 122.248C233.066 122.248 232.192 122.483 231.381 122.952C230.57 123.4 229.909 124.072 229.397 124.968C228.906 125.843 228.661 126.888 228.661 128.104C228.661 129.32 228.906 130.387 229.397 131.304C229.909 132.221 230.57 132.925 231.381 133.416C232.213 133.885 233.088 134.12 234.005 134.12C234.944 134.12 235.818 133.885 236.629 133.416C237.44 132.947 238.09 132.264 238.581 131.368C239.093 130.451 239.349 129.384 239.349 128.168ZM250.157 122.344V132.104C250.157 132.765 250.306 133.245 250.605 133.544C250.925 133.821 251.458 133.96 252.205 133.96H254.445V137H251.565C249.922 137 248.663 136.616 247.789 135.848C246.914 135.08 246.477 133.832 246.477 132.104V122.344H244.397V119.368H246.477V114.984H250.157V119.368H254.445V122.344H250.157ZM262.287 137.288C260.9 137.288 259.652 137.043 258.543 136.552C257.455 136.04 256.591 135.357 255.951 134.504C255.311 133.629 254.97 132.659 254.927 131.592H258.703C258.767 132.339 259.119 132.968 259.759 133.48C260.42 133.971 261.242 134.216 262.223 134.216C263.247 134.216 264.036 134.024 264.591 133.64C265.167 133.235 265.455 132.723 265.455 132.104C265.455 131.443 265.135 130.952 264.495 130.632C263.876 130.312 262.884 129.96 261.519 129.576C260.196 129.213 259.119 128.861 258.287 128.52C257.455 128.179 256.73 127.656 256.111 126.952C255.514 126.248 255.215 125.32 255.215 124.168C255.215 123.229 255.492 122.376 256.047 121.608C256.602 120.819 257.391 120.2 258.415 119.752C259.46 119.304 260.655 119.08 261.999 119.08C264.004 119.08 265.615 119.592 266.831 120.616C268.068 121.619 268.73 122.995 268.815 124.744H265.167C265.103 123.955 264.783 123.325 264.207 122.856C263.631 122.387 262.852 122.152 261.871 122.152C260.911 122.152 260.175 122.333 259.663 122.696C259.151 123.059 258.895 123.539 258.895 124.136C258.895 124.605 259.066 125 259.407 125.32C259.748 125.64 260.164 125.896 260.655 126.088C261.146 126.259 261.871 126.483 262.831 126.76C264.111 127.101 265.156 127.453 265.967 127.816C266.799 128.157 267.514 128.669 268.111 129.352C268.708 130.035 269.018 130.941 269.039 132.072C269.039 133.075 268.762 133.971 268.207 134.76C267.652 135.549 266.863 136.168 265.839 136.616C264.836 137.064 263.652 137.288 262.287 137.288Z" fill="white"/>
<rect x="21" y="19" width="887" height="221" rx="19" stroke="white" stroke-width="2"/>
</svg>
