<svg width="240" height="60" viewBox="0 0 240 60" fill="none" xmlns="http://www.w3.org/2000/svg">
<path d="M0.840909 10.9602V0.81818H48.625V10.9602H30.8125V59H18.6534V10.9602H0.840909ZM107.304 29.9091C107.304 36.2538 106.101 41.6515 103.696 46.1023C101.31 50.553 98.0521 53.9527 93.9233 56.3011C89.8134 58.6307 85.1922 59.7955 80.0597 59.7955C74.8892 59.7955 70.2491 58.6212 66.1392 56.2727C62.0294 53.9242 58.7813 50.5246 56.3949 46.0739C54.0085 41.6231 52.8153 36.2348 52.8153 29.9091C52.8153 23.5644 54.0085 18.1667 56.3949 13.7159C58.7813 9.26515 62.0294 5.875 66.1392 3.54545C70.2491 1.19697 74.8892 0.0227251 80.0597 0.0227251C85.1922 0.0227251 89.8134 1.19697 93.9233 3.54545C98.0521 5.875 101.31 9.26515 103.696 13.7159C106.101 18.1667 107.304 23.5644 107.304 29.9091ZM94.8324 29.9091C94.8324 25.7992 94.2169 22.3333 92.9858 19.5114C91.7737 16.6894 90.0597 14.5492 87.8438 13.0909C85.6278 11.6326 83.0331 10.9034 80.0597 10.9034C77.0862 10.9034 74.4915 11.6326 72.2756 13.0909C70.0597 14.5492 68.3362 16.6894 67.1051 19.5114C65.893 22.3333 65.2869 25.7992 65.2869 29.9091C65.2869 34.0189 65.893 37.4848 67.1051 40.3068C68.3362 43.1288 70.0597 45.2689 72.2756 46.7273C74.4915 48.1856 77.0862 48.9148 80.0597 48.9148C83.0331 48.9148 85.6278 48.1856 87.8438 46.7273C90.0597 45.2689 91.7737 43.1288 92.9858 40.3068C94.2169 37.4848 94.8324 34.0189 94.8324 29.9091ZM123.263 52.2386C121.388 52.2386 119.778 51.5758 118.433 50.25C117.107 48.9242 116.445 47.3144 116.445 45.4205C116.445 43.5644 117.107 41.9735 118.433 40.6477C119.778 39.322 121.388 38.6591 123.263 38.6591C125.081 38.6591 126.672 39.322 128.036 40.6477C129.399 41.9735 130.081 43.5644 130.081 45.4205C130.081 46.6705 129.759 47.8163 129.115 48.858C128.49 49.8807 127.666 50.7045 126.643 51.3295C125.621 51.9356 124.494 52.2386 123.263 52.2386ZM123.263 23.6875C121.388 23.6875 119.778 23.0246 118.433 21.6989C117.107 20.3731 116.445 18.7633 116.445 16.8693C116.445 15.0133 117.107 13.4318 118.433 12.125C119.778 10.7992 121.388 10.1364 123.263 10.1364C125.081 10.1364 126.672 10.7992 128.036 12.125C129.399 13.4318 130.081 15.0133 130.081 16.8693C130.081 18.1383 129.759 19.2936 129.115 20.3352C128.49 21.358 127.666 22.1723 126.643 22.7784C125.621 23.3845 124.494 23.6875 123.263 23.6875ZM150.756 0.81818L164.818 45.0227H165.358L179.449 0.81818H193.085L173.028 59H157.176L137.091 0.81818H150.756ZM200.088 59V0.81818H239.293V10.9602H212.389V24.8239H237.276V34.9659H212.389V48.858H239.406V59H200.088Z" fill="#47624F"/>
</svg>
